mtllib Sign01.mtl
g Body1
v 30.000000 470.000000 30.000000
v 1470.000000 470.000000 30.000000
v 30.000000 470.000000 50.000000
v 1470.000000 470.000000 50.000000
v 1470.000000 30.000000 30.000000
v 1470.000000 30.000000 50.000000
v 30.000000 30.000000 30.000000
v 30.000000 30.000000 50.000000
v 1500.000000 500.000000 0.000000
v 0.000000 500.000000 0.000000
v 1500.000000 500.000000 50.000000
v 0.000000 500.000000 50.000000
v 1500.000000 0.000000 0.000000
v 1500.000000 0.000000 50.000000
v 0.000000 0.000000 0.000000
v 0.000000 0.000000 50.000000
vt 0.033711 0.626949
vt 0.858740 0.632770
vt 0.033189 0.639245
vt 0.866738 0.639202
vt 0.858740 0.632770
vt 0.862966 0.380507
vt 0.866738 0.639202
vt 0.863769 0.369229
vt 0.862966 0.380507
vt 0.037655 0.373667
vt 0.863769 0.369229
vt 0.029376 0.366217
vt 0.037655 0.373667
vt 0.033711 0.626949
vt 0.029376 0.366217
vt 0.033189 0.639245
vt 0.037655 0.373667
vt 0.862966 0.380507
vt 0.033711 0.626949
vt 0.858740 0.632770
vt 0.906655 0.677629
vt 0.048290 0.672025
vt 0.895900 0.650773
vt 0.028013 0.652479
vt 0.901548 0.964369
vt 0.906655 0.677629
vt 0.921583 0.983035
vt 0.934671 0.689544
vt 0.043426 0.959642
vt 0.901548 0.964369
vt 0.054453 0.987479
vt 0.921583 0.983035
vt 0.048290 0.672025
vt 0.043426 0.959642
vt 0.028013 0.652479
vt 0.015402 0.947700
vt 0.866738 0.639202
vt 0.028013 0.652479
vt 0.033189 0.639245
vt 0.011739 0.663431
vt 0.015402 0.947700
vt 0.000000 0.923025
vt 0.083877 1.000000
vt 0.054453 0.987479
vt 0.921583 0.983035
vt 0.916132 0.995277
vt 0.937843 0.972180
vt 0.950000 0.714097
vt 0.934671 0.689544
vt 0.895900 0.650773
vt 0.048290 0.672025
vt 0.906655 0.677629
vt 0.043426 0.959642
vt 0.901548 0.964369
vn 0.000000 -0.998312 0.000000
vn 0.000000 -0.998312 0.000000
vn 0.000000 -0.998312 0.000000
vn 0.000000 -0.998312 0.000000
vn -0.998312 0.000000 0.000000
vn -0.998312 0.000000 0.000000
vn -0.998312 0.000000 0.000000
vn -0.998312 0.000000 0.000000
vn 0.000000 0.998312 0.000000
vn 0.000000 0.998312 0.000000
vn 0.000000 0.998312 0.000000
vn 0.000000 0.998312 0.000000
vn 0.998312 0.000000 0.000000
vn 0.998312 0.000000 0.000000
vn 0.998312 0.000000 0.000000
vn 0.998312 0.000000 0.000000
vn 0.000000 0.000000 0.998312
vn 0.000000 0.000000 0.998312
vn 0.000000 0.000000 0.998312
vn 0.000000 0.000000 0.998312
vn 0.000000 0.998312 0.000000
vn 0.000000 0.998312 0.000000
vn 0.000000 0.998312 0.000000
vn 0.000000 0.998312 0.000000
vn 0.998312 0.000000 0.000000
vn 0.998312 0.000000 0.000000
vn 0.998312 0.000000 0.000000
vn 0.998312 0.000000 0.000000
vn 0.000000 -0.998312 0.000000
vn 0.000000 -0.998312 0.000000
vn 0.000000 -0.998312 0.000000
vn 0.000000 -0.998312 0.000000
vn -0.998312 0.000000 0.000000
vn -0.998312 0.000000 0.000000
vn -0.998312 0.000000 0.000000
vn -0.998312 0.000000 0.000000
vn 0.000000 0.000000 0.998312
vn 0.000000 0.000000 0.998312
vn 0.000000 0.000000 0.998312
vn 0.000000 0.000000 0.998312
vn 0.000000 0.000000 0.998312
vn 0.000000 0.000000 0.998312
vn 0.000000 0.000000 0.998312
vn 0.000000 0.000000 0.998312
vn 0.000000 0.000000 0.998312
vn 0.000000 0.000000 0.998312
vn 0.000000 0.000000 0.998312
vn 0.000000 0.000000 0.998312
vn 0.000000 0.000000 0.998312
vn 0.000000 0.000000 0.998312
vn 0.000000 0.000000 -0.998312
vn 0.000000 0.000000 -0.998312
vn 0.000000 0.000000 -0.998312
vn 0.000000 0.000000 -0.998312
usemtl Body1 Merged Material
f 1/1/1 2/2/2 3/3/3
f 3/3/3 2/2/2 4/4/4
f 2/5/5 5/6/6 4/7/7
f 4/7/7 5/6/6 6/8/8
f 5/9/9 7/10/10 6/11/11
f 6/11/11 7/10/10 8/12/12
f 7/13/13 1/14/14 8/15/15
f 8/15/15 1/14/14 3/16/16
f 7/17/17 5/18/18 1/19/19
f 1/19/19 5/18/18 2/20/20
f 9/21/21 10/22/22 11/23/23
f 11/23/23 10/22/22 12/24/24
f 13/25/25 9/26/26 14/27/27
f 14/27/27 9/26/26 11/28/28
f 15/29/29 13/30/30 16/31/31
f 16/31/31 13/30/30 14/32/32
f 10/33/33 15/34/34 12/35/35
f 12/35/35 15/34/34 16/36/36
f 4/37/37 12/38/38 3/39/39
f 3/40/40 12/38/38 16/41/41
f 3/40/40 16/41/41 8/42/42
f 8/43/43 16/44/44 14/45/45
f 8/43/43 14/45/45 6/46/46
f 6/47/47 14/45/45 4/48/48
f 4/48/48 14/45/45 11/49/49
f 4/37/37 11/50/50 12/38/38
f 10/51/51 9/52/52 15/53/53
f 15/53/53 9/52/52 13/54/54
